<svg viewBox="0 0 400 400" xmlns="http://www.w3.org/2000/svg">
  <defs>
    <linearGradient id="bgGradient2" x1="0%" y1="0%" x2="100%" y2="100%">
      <stop offset="0%" style="stop-color:#ec4899;stop-opacity:0.1"/>
      <stop offset="100%" style="stop-color:#f97316;stop-opacity:0.1"/>
    </linearGradient>
    <linearGradient id="heartGradient" x1="0%" y1="0%" x2="100%" y2="100%">
      <stop offset="0%" style="stop-color:#ec4899"/>
      <stop offset="100%" style="stop-color:#f43f5e"/>
    </linearGradient>
    <linearGradient id="peopleGradient" x1="0%" y1="0%" x2="100%" y2="100%">
      <stop offset="0%" style="stop-color:#6366f1"/>
      <stop offset="100%" style="stop-color:#8b5cf6"/>
    </linearGradient>
    <linearGradient id="chatGradient" x1="0%" y1="0%" x2="100%" y2="100%">
      <stop offset="0%" style="stop-color:#06b6d4"/>
      <stop offset="100%" style="stop-color:#0ea5e9"/>
    </linearGradient>
    <filter id="glow" x="-20%" y="-20%" width="140%" height="140%">
      <feGaussianBlur stdDeviation="3" result="coloredBlur"/>
      <feMerge>
        <feMergeNode in="coloredBlur"/>
        <feMergeNode in="SourceGraphic"/>
      </feMerge>
    </filter>
    <filter id="shadow" x="-20%" y="-20%" width="140%" height="140%">
      <dropShadow dx="0" dy="8" stdDeviation="12" flood-opacity="0.15"/>
    </filter>
  </defs>
  
  <!-- Background -->
  <circle cx="200" cy="200" r="180" fill="url(#bgGradient2)"/>
  
  <!-- Central Heart Icon -->
  <g transform="translate(200, 200)">
    <path d="M0 8C0 0 -12 -8 -20 0C-28 -8 -40 0 -40 8C-40 24 0 40 0 40S40 24 40 8C40 0 28 -8 20 0C12 -8 0 0 0 8Z" 
          fill="url(#heartGradient)" filter="url(#glow)" transform="scale(0.8)"/>
  </g>
  
  <!-- People Circle Around Heart -->
  <!-- Person 1 (Top) -->
  <g transform="translate(200, 120)">
    <circle cx="0" cy="0" r="25" fill="white" filter="url(#shadow)"/>
    <circle cx="0" cy="-5" r="8" fill="url(#peopleGradient)"/>
    <path d="M-12 15C-12 8 -8 5 0 5C8 5 12 8 12 15" fill="url(#peopleGradient)"/>
    <!-- Connection line to heart -->
    <line x1="0" y1="25" x2="0" y2="55" stroke="url(#heartGradient)" stroke-width="3" opacity="0.6" stroke-dasharray="5,5"/>
  </g>
  
  <!-- Person 2 (Top Right) -->
  <g transform="translate(280, 160)">
    <circle cx="0" cy="0" r="25" fill="white" filter="url(#shadow)"/>
    <circle cx="0" cy="-5" r="8" fill="url(#peopleGradient)"/>
    <path d="M-12 15C-12 8 -8 5 0 5C8 5 12 8 12 15" fill="url(#peopleGradient)"/>
    <!-- Connection line -->
    <line x1="-25" y1="20" x2="-55" y2="35" stroke="url(#heartGradient)" stroke-width="3" opacity="0.6" stroke-dasharray="5,5"/>
  </g>
  
  <!-- Person 3 (Right) -->
  <g transform="translate(310, 240)">
    <circle cx="0" cy="0" r="25" fill="white" filter="url(#shadow)"/>
    <circle cx="0" cy="-5" r="8" fill="url(#peopleGradient)"/>
    <path d="M-12 15C-12 8 -8 5 0 5C8 5 12 8 12 15" fill="url(#peopleGradient)"/>
    <!-- Connection line -->
    <line x1="-25" y1="-5" x2="-85" y2="-35" stroke="url(#heartGradient)" stroke-width="3" opacity="0.6" stroke-dasharray="5,5"/>
  </g>
  
  <!-- Person 4 (Bottom Right) -->
  <g transform="translate(280, 320)">
    <circle cx="0" cy="0" r="25" fill="white" filter="url(#shadow)"/>
    <circle cx="0" cy="-5" r="8" fill="url(#peopleGradient)"/>
    <path d="M-12 15C-12 8 -8 5 0 5C8 5 12 8 12 15" fill="url(#peopleGradient)"/>
    <!-- Connection line -->
    <line x1="-25" y1="-25" x2="-55" y2="-95" stroke="url(#heartGradient)" stroke-width="3" opacity="0.6" stroke-dasharray="5,5"/>
  </g>
  
  <!-- Person 5 (Bottom) -->
  <g transform="translate(200, 340)">
    <circle cx="0" cy="0" r="25" fill="white" filter="url(#shadow)"/>
    <circle cx="0" cy="-5" r="8" fill="url(#peopleGradient)"/>
    <path d="M-12 15C-12 8 -8 5 0 5C8 5 12 8 12 15" fill="url(#peopleGradient)"/>
    <!-- Connection line -->
    <line x1="0" y1="-25" x2="0" y2="-115" stroke="url(#heartGradient)" stroke-width="3" opacity="0.6" stroke-dasharray="5,5"/>
  </g>
  
  <!-- Person 6 (Bottom Left) -->
  <g transform="translate(120, 320)">
    <circle cx="0" cy="0" r="25" fill="white" filter="url(#shadow)"/>
    <circle cx="0" cy="-5" r="8" fill="url(#peopleGradient)"/>
    <path d="M-12 15C-12 8 -8 5 0 5C8 5 12 8 12 15" fill="url(#peopleGradient)"/>
    <!-- Connection line -->
    <line x1="25" y1="-25" x2="55" y2="-95" stroke="url(#heartGradient)" stroke-width="3" opacity="0.6" stroke-dasharray="5,5"/>
  </g>
  
  <!-- Person 7 (Left) -->
  <g transform="translate(90, 240)">
    <circle cx="0" cy="0" r="25" fill="white" filter="url(#shadow)"/>
    <circle cx="0" cy="-5" r="8" fill="url(#peopleGradient)"/>
    <path d="M-12 15C-12 8 -8 5 0 5C8 5 12 8 12 15" fill="url(#peopleGradient)"/>
    <!-- Connection line -->
    <line x1="25" y1="-5" x2="85" y2="-35" stroke="url(#heartGradient)" stroke-width="3" opacity="0.6" stroke-dasharray="5,5"/>
  </g>
  
  <!-- Person 8 (Top Left) -->
  <g transform="translate(120, 160)">
    <circle cx="0" cy="0" r="25" fill="white" filter="url(#shadow)"/>
    <circle cx="0" cy="-5" r="8" fill="url(#peopleGradient)"/>
    <path d="M-12 15C-12 8 -8 5 0 5C8 5 12 8 12 15" fill="url(#peopleGradient)"/>
    <!-- Connection line -->
    <line x1="25" y1="20" x2="55" y2="35" stroke="url(#heartGradient)" stroke-width="3" opacity="0.6" stroke-dasharray="5,5"/>
  </g>
  
  <!-- Chat Bubbles -->
  <g transform="translate(140, 100)">
    <ellipse cx="0" cy="0" rx="20" ry="15" fill="url(#chatGradient)" filter="url(#shadow)"/>
    <path d="M-10 10L-5 15L0 10Z" fill="url(#chatGradient)"/>
    <circle cx="-8" cy="-2" r="2" fill="white"/>
    <circle cx="0" cy="-2" r="2" fill="white"/>
    <circle cx="8" cy="-2" r="2" fill="white"/>
  </g>
  
  <g transform="translate(300, 120)">
    <ellipse cx="0" cy="0" rx="18" ry="12" fill="url(#heartGradient)" filter="url(#shadow)"/>
    <path d="M10 8L5 12L0 8Z" fill="url(#heartGradient)"/>
    <path d="M-8 -3L8 -3M-8 3L8 3" stroke="white" stroke-width="2" stroke-linecap="round"/>
  </g>
  
  <g transform="translate(80, 280)">
    <ellipse cx="0" cy="0" rx="16" ry="12" fill="url(#peopleGradient)" filter="url(#shadow)"/>
    <path d="M-8 8L-3 12L2 8Z" fill="url(#peopleGradient)"/>
    <circle cx="-5" cy="-2" r="1.5" fill="white"/>
    <circle cx="5" cy="-2" r="1.5" fill="white"/>
    <path d="M-8 4C-8 2 -4 0 0 0C4 0 8 2 8 4" stroke="white" stroke-width="1.5" fill="none"/>
  </g>
  
  <!-- Notification Icons -->
  <g transform="translate(320, 280)">
    <circle cx="0" cy="0" r="12" fill="#f59e0b" filter="url(#shadow)"/>
    <path d="M-6 -2C-6 -6 -3 -8 0 -8C3 -8 6 -6 6 -2V2C6 4 8 6 8 6H-8S-6 4 -6 2V-2Z" fill="white"/>
    <circle cx="6" cy="-6" r="3" fill="#ef4444"/>
  </g>
  
  <!-- Decorative Hearts -->
  <g transform="translate(60, 150)" opacity="0.3">
    <path d="M0 4C0 0 -6 -4 -10 0C-14 -4 -20 0 -20 4C-20 12 0 20 0 20S20 12 20 4C20 0 14 -4 10 0C6 -4 0 0 0 4Z" 
          fill="url(#heartGradient)" transform="scale(0.4)"/>
  </g>
  
  <g transform="translate(350, 200)" opacity="0.3">
    <path d="M0 4C0 0 -6 -4 -10 0C-14 -4 -20 0 -20 4C-20 12 0 20 0 20S20 12 20 4C20 0 14 -4 10 0C6 -4 0 0 0 4Z" 
          fill="url(#heartGradient)" transform="scale(0.3)"/>
  </g>
  
  <!-- Background Pattern -->
  <g opacity="0.1">
    <circle cx="50" cy="80" r="3" fill="url(#heartGradient)"/>
    <circle cx="350" cy="100" r="3" fill="url(#chatGradient)"/>
    <circle cx="80" cy="380" r="3" fill="url(#peopleGradient)"/>
    <circle cx="320" cy="360" r="3" fill="url(#heartGradient)"/>
  </g>
</svg>